<svg xmlns="http://www.w3.org/2000/svg" viewBox="0 0 512 512" width="512" height="512"><clipPath id="rr"><rect width="512" height="512" rx="112.00"/></clipPath><g clip-path="url(#rr)"><rect x="0" y="0.00" width="512" height="64.00" fill="#358459"/><rect x="0" y="64.00" width="512" height="64.00" fill="#3d9466"/><rect x="0" y="128.00" width="512" height="64.00" fill="#358459"/><rect x="0" y="192.00" width="512" height="64.00" fill="#3d9466"/><rect x="0" y="256.00" width="512" height="64.00" fill="#358459"/><rect x="0" y="320.00" width="512" height="64.00" fill="#3d9466"/><rect x="0" y="384.00" width="512" height="64.00" fill="#358459"/><rect x="0" y="448.00" width="512" height="64.00" fill="#3d9466"/><g fill="none" stroke="#ffffff" stroke-opacity=".85" stroke-width="6.14">
  <rect x="38.40" y="38.40" width="435.20" height="435.20" rx="6.14"/>
  <line x1="38.40" y1="256.00" x2="473.60" y2="256.00"/>
  <circle cx="256.00" cy="256.00" r="73.98"/>
  <rect x="147.20" y="38.40" width="217.60" height="69.63"/>
  <rect x="203.78" y="38.40" width="104.45" height="26.11"/>
  <rect x="147.20" y="403.97" width="217.60" height="69.63"/>
  <rect x="203.78" y="447.49" width="104.45" height="26.11"/>
</g><defs><radialGradient id="bs" cx="38%" cy="32%" r="75%"><stop offset="0" stop-color="#fff" stop-opacity="0"/><stop offset=".55" stop-color="#000" stop-opacity=".05"/><stop offset=".85" stop-color="#000" stop-opacity=".28"/><stop offset="1" stop-color="#000" stop-opacity=".5"/></radialGradient><radialGradient id="bh" cx="34%" cy="27%" r="30%"><stop offset="0" stop-color="#fff" stop-opacity=".85"/><stop offset="1" stop-color="#fff" stop-opacity="0"/></radialGradient><clipPath id="bc"><circle cx="256.0" cy="239.21" r="71.81"/></clipPath></defs><circle cx="256.0" cy="239.21" r="74.68" fill="#0d1114" opacity=".35"/><g clip-path="url(#bc)"><circle cx="256.0" cy="239.21" r="71.81" fill="#f4f6f8"/><polygon points="185.79,254.30 186.41,256.92 187.09,259.39 187.81,261.74 188.59,263.96 189.41,266.08 190.26,268.11 191.15,270.05 192.07,271.91 191.11,269.97 190.23,268.04 189.42,266.11 188.67,264.17 187.98,262.23 187.35,260.28 186.84,258.29 186.51,256.25 185.69,252.80 185.04,249.30 184.58,245.79 184.31,242.25 184.22,238.71 184.31,235.17 184.59,231.64 185.05,228.13 185.12,227.66 185.20,227.19 185.29,226.71 185.37,226.22 185.47,225.72 185.57,225.21 185.67,224.69 185.79,224.14 185.14,227.58 184.65,231.13 184.33,234.78 184.19,238.53 184.26,242.36 184.54,246.28 185.05,250.27" fill="#15191d" stroke="#15191d" stroke-width="1.44" stroke-linejoin="round"/><polygon points="249.60,310.44 246.02,309.97 242.47,309.33 238.95,308.50 235.47,307.50 232.05,306.31 228.69,304.96 225.40,303.44 222.19,301.75 220.56,301.28 219.02,300.65 217.57,299.87 216.19,298.97 214.83,298.04 213.48,297.07 212.13,296.06 210.79,295.00 212.74,296.53 214.79,298.02 216.94,299.47 219.19,300.87 221.57,302.23 224.07,303.53 226.71,304.78 229.50,305.95 232.99,307.23 236.45,308.31 239.87,309.19 243.25,309.88 246.58,310.40 249.86,310.76 253.08,310.96 256.24,311.02 255.36,311.02 254.50,311.00 253.66,310.98 252.83,310.95 252.01,310.91 251.20,310.86 250.39,310.74" fill="#15191d" stroke="#15191d" stroke-width="1.44" stroke-linejoin="round"/><polygon points="209.38,185.36 209.81,184.52 210.35,183.82 211.00,183.24 211.69,182.70 212.38,182.17 213.08,181.64 213.81,181.10 214.55,180.57 212.51,182.06 210.48,183.67 208.46,185.39 206.44,187.24 204.43,189.24 202.44,191.38 200.46,193.69 198.51,196.18 196.13,199.55 193.99,202.99 192.08,206.49 190.39,210.01 188.93,213.56 187.68,217.10 186.63,220.63 185.79,224.14 185.67,224.69 185.57,225.21 185.47,225.72 185.37,226.22 185.29,226.71 185.20,227.19 185.12,227.66 185.05,228.13 185.54,225.46 186.21,222.82 187.06,220.23 188.08,217.68 189.28,215.19 190.65,212.76 192.20,210.40 193.90,208.11 195.32,204.90 196.90,201.78 198.63,198.76 200.50,195.84 202.52,193.04 204.68,190.35 206.97,187.79" fill="none" stroke="#9aa3ad" stroke-width="1.58" stroke-linejoin="round"/><polygon points="322.10,211.14 320.42,207.48 318.53,203.89 316.42,200.40 314.10,197.01 311.58,193.74 308.87,190.62 305.98,187.65 302.93,184.86 301.26,183.46 299.62,182.16 298.00,180.96 296.40,179.84 294.83,178.80 293.26,177.82 291.70,176.90 290.15,176.04 291.61,176.85 293.03,177.69 294.43,178.55 295.78,179.49 297.03,180.59 298.17,181.83 299.20,183.23 300.12,184.77 302.81,187.19 305.39,189.75 307.83,192.43 310.15,195.24 312.32,198.16 314.35,201.18 316.23,204.30 317.96,207.52 319.49,209.11 320.86,210.78 322.07,212.52 323.10,214.33 323.96,216.21 324.65,218.14 325.22,220.11 325.74,222.11 325.41,220.81 325.05,219.51 324.66,218.18 324.24,216.84 323.77,215.47 323.27,214.07 322.71,212.63" fill="none" stroke="#9aa3ad" stroke-width="1.58" stroke-linejoin="round"/><polygon points="229.50,305.95 232.99,307.23 236.45,308.31 239.87,309.19 243.25,309.88 246.58,310.40 249.86,310.76 253.08,310.96 256.24,311.02 255.36,311.02 254.50,311.00 253.66,310.98 252.83,310.95 252.01,310.91 251.20,310.86 250.39,310.74 249.60,310.44 252.09,310.32 254.60,310.03 257.11,309.55 259.61,308.89 262.11,308.05 264.59,307.03 267.05,305.84 269.48,304.47 263.43,306.01 257.33,307.02 251.22,307.49 245.15,307.41 239.16,306.79 233.31,305.63 227.64,303.95 222.19,301.75 220.56,301.28 219.02,300.65 217.57,299.87 216.19,298.97 214.83,298.04 213.48,297.07 212.13,296.06 210.79,295.00 212.74,296.53 214.79,298.02 216.94,299.47 219.19,300.87 221.57,302.23 224.07,303.53 226.71,304.78" fill="none" stroke="#9aa3ad" stroke-width="1.58" stroke-linejoin="round"/><polygon points="300.12,184.77 299.20,183.23 298.17,181.83 297.03,180.59 295.78,179.49 294.43,178.55 293.03,177.69 291.61,176.85 290.15,176.04 286.88,174.38 283.54,172.89 280.14,171.58 276.67,170.44 273.16,169.48 269.61,168.70 266.03,168.10 262.43,167.69 259.94,167.51 257.42,167.41 254.87,167.41 252.28,167.50 249.65,167.68 246.98,167.97 244.26,168.37 241.48,168.88 243.38,168.52 245.20,168.22 246.95,167.97 248.68,167.77 250.40,167.70 252.17,168.14 253.96,169.15 255.77,170.71 258.76,171.41 261.74,172.29 264.71,173.35 267.66,174.57 270.58,175.96 273.46,177.51 276.29,179.22 279.08,181.08 281.99,181.02 284.84,181.11 287.61,181.35 290.30,181.74 292.90,182.28 295.41,182.97 297.82,183.80" fill="none" stroke="#9aa3ad" stroke-width="1.58" stroke-linejoin="round"/><polygon points="196.82,264.35 194.95,263.54 193.24,262.66 191.69,261.73 190.31,260.74 189.10,259.70 188.06,258.60 187.20,257.45 186.51,256.25 186.84,258.29 187.35,260.28 187.98,262.23 188.67,264.17 189.42,266.11 190.23,268.04 191.11,269.97 192.07,271.91 193.87,275.22 195.84,278.42 197.97,281.51 200.25,284.48 202.69,287.32 205.26,290.03 207.96,292.59 210.79,295.00 212.13,296.06 213.48,297.07 214.83,298.04 216.19,298.97 217.57,299.87 219.02,300.65 220.56,301.28 222.19,301.75 220.91,300.44 219.73,298.97 218.63,297.35 217.64,295.58 216.74,293.66 215.94,291.61 215.25,289.42 214.66,287.09 211.99,284.61 209.43,282.01 206.99,279.30 204.68,276.49 202.50,273.58 200.46,270.58 198.57,267.50" fill="none" stroke="#9aa3ad" stroke-width="1.58" stroke-linejoin="round"/><polygon points="320.31,253.01 318.92,256.06 317.35,259.07 315.63,262.02 313.76,264.92 311.74,267.74 309.57,270.50 307.27,273.17 304.83,275.76 304.14,278.67 303.33,281.47 302.39,284.17 301.34,286.75 300.17,289.21 298.88,291.54 297.49,293.73 295.98,295.78 297.20,295.95 298.31,295.97 299.32,295.85 300.21,295.58 300.99,295.16 301.67,294.63 302.33,294.07 303.00,293.50 305.56,291.18 308.01,288.72 310.35,286.14 312.58,283.42 314.69,280.59 316.67,277.63 318.51,274.55 320.21,271.37 321.45,268.76 322.56,266.15 323.56,263.54 324.45,260.91 325.23,258.27 325.91,255.63 326.48,252.96 326.95,250.29 326.75,250.74 326.36,251.16 325.80,251.55 325.05,251.91 324.13,252.24 323.03,252.53 321.76,252.79" fill="none" stroke="#9aa3ad" stroke-width="1.58" stroke-linejoin="round"/><polygon points="255.77,170.71 258.76,171.41 261.74,172.29 264.71,173.35 267.66,174.57 270.58,175.96 273.46,177.51 276.29,179.22 279.08,181.08 281.99,181.02 284.84,181.11 287.61,181.35 290.30,181.74 292.90,182.28 295.41,182.97 297.82,183.80 300.12,184.77 299.20,183.23 298.17,181.83 297.03,180.59 295.78,179.49 294.43,178.55 293.03,177.69 291.61,176.85 290.15,176.04 286.88,174.38 283.54,172.89 280.14,171.58 276.67,170.44 273.16,169.48 269.61,168.70 266.03,168.10 262.43,167.69 261.61,167.62 260.80,167.56 259.98,167.63 259.15,167.88 258.31,168.31 257.47,168.93 256.62,169.73" fill="#15191d" stroke="#15191d" stroke-width="1.44" stroke-linejoin="round"/><polygon points="320.31,253.01 321.76,252.79 323.03,252.53 324.13,252.24 325.05,251.91 325.80,251.55 326.36,251.16 326.75,250.74 326.95,250.29 327.41,246.78 327.70,243.25 327.81,239.71 327.75,236.16 327.51,232.62 327.09,229.10 326.51,225.59 325.74,222.11 325.22,220.11 324.65,218.14 323.96,216.21 323.10,214.33 322.07,212.52 320.86,210.78 319.49,209.11 317.96,207.52 318.11,209.67 318.11,211.91 317.95,214.21 317.62,216.58 317.14,219.01 316.50,221.49 315.71,224.01 314.76,226.58 316.01,229.86 317.11,233.16 318.05,236.48 318.83,239.81 319.45,243.13 319.90,246.45 320.19,249.74" fill="#15191d" stroke="#15191d" stroke-width="1.44" stroke-linejoin="round"/><polygon points="325.74,222.11 325.22,220.11 324.65,218.14 323.96,216.21 323.10,214.33 322.07,212.52 320.86,210.78 319.49,209.11 317.96,207.52 318.11,209.67 318.11,211.91 317.95,214.21 317.62,216.58 317.14,219.01 316.50,221.49 315.71,224.01 314.76,226.58 312.59,225.99 310.28,225.43 307.83,224.91 305.25,224.43 302.54,223.99 299.71,223.58 296.77,223.22 293.72,222.89 298.44,226.52 302.83,230.24 306.84,234.03 310.45,237.87 313.62,241.71 316.34,245.54 318.58,249.32 320.31,253.01 321.76,252.79 323.03,252.53 324.13,252.24 325.05,251.91 325.80,251.55 326.36,251.16 326.75,250.74 326.95,250.29 327.41,246.78 327.70,243.25 327.81,239.71 327.75,236.16 327.51,232.62 327.09,229.10 326.51,225.59" fill="none" stroke="#9aa3ad" stroke-width="1.58" stroke-linejoin="round"/><polygon points="226.06,198.46 226.20,195.64 226.41,192.93 226.70,190.34 227.07,187.87 227.50,185.54 228.02,183.35 228.60,181.30 229.26,179.40 226.46,179.62 223.74,179.99 221.10,180.51 218.55,181.19 216.10,182.01 213.75,182.98 211.51,184.10 209.38,185.36 206.97,187.79 204.68,190.35 202.52,193.04 200.50,195.84 198.63,198.76 196.90,201.78 195.32,204.90 193.90,208.11 194.66,208.86 195.57,209.70 196.64,210.61 197.86,211.59 199.23,212.64 200.75,213.77 202.41,214.95 204.21,216.21 206.54,213.72 209.00,211.29 211.58,208.94 214.28,206.66 217.08,204.47 219.98,202.37 222.98,200.37" fill="#15191d" stroke="#15191d" stroke-width="1.44" stroke-linejoin="round"/><polygon points="283.79,272.07 281.24,274.66 278.62,277.14 275.95,279.54 273.22,281.82 270.45,284.00 267.64,286.06 264.80,288.00 261.94,289.82 262.96,292.17 263.97,294.38 264.95,296.44 265.91,298.36 266.85,300.13 267.75,301.74 268.63,303.19 269.48,304.47 267.05,305.84 264.59,307.03 262.11,308.05 259.61,308.89 257.11,309.55 254.60,310.03 252.09,310.32 249.60,310.44 255.73,310.53 261.85,310.05 267.94,309.01 273.92,307.41 279.77,305.27 285.42,302.60 290.84,299.43 295.98,295.78 297.49,293.73 298.88,291.54 300.17,289.21 301.34,286.75 302.39,284.17 303.33,281.47 304.14,278.67 304.83,275.76 302.58,275.62 300.20,275.39 297.71,275.06 295.12,274.65 292.42,274.14 289.63,273.54 286.75,272.85" fill="none" stroke="#9aa3ad" stroke-width="1.58" stroke-linejoin="round"/><polygon points="209.38,185.36 206.97,187.79 204.68,190.35 202.52,193.04 200.50,195.84 198.63,198.76 196.90,201.78 195.32,204.90 193.90,208.11 194.66,208.86 195.57,209.70 196.64,210.61 197.86,211.59 199.23,212.64 200.75,213.77 202.41,214.95 204.21,216.21 203.92,219.61 203.77,223.06 203.75,226.55 203.87,230.08 204.12,233.63 204.50,237.19 205.02,240.76 205.67,244.32 206.97,238.23 208.66,232.15 210.73,226.12 213.16,220.19 215.93,214.42 219.02,208.84 222.41,203.51 226.06,198.46 226.20,195.64 226.41,192.93 226.70,190.34 227.07,187.87 227.50,185.54 228.02,183.35 228.60,181.30 229.26,179.40 226.46,179.62 223.74,179.99 221.10,180.51 218.55,181.19 216.10,182.01 213.75,182.98 211.51,184.10" fill="none" stroke="#9aa3ad" stroke-width="1.58" stroke-linejoin="round"/><polygon points="283.79,272.07 281.24,274.66 278.62,277.14 275.95,279.54 273.22,281.82 270.45,284.00 267.64,286.06 264.80,288.00 261.94,289.82 262.96,292.17 263.97,294.38 264.95,296.44 265.91,298.36 266.85,300.13 267.75,301.74 268.63,303.19 269.48,304.47 273.00,303.95 276.49,303.27 279.92,302.42 283.29,301.41 286.59,300.23 289.81,298.90 292.94,297.42 295.98,295.78 297.49,293.73 298.88,291.54 300.17,289.21 301.34,286.75 302.39,284.17 303.33,281.47 304.14,278.67 304.83,275.76 302.58,275.62 300.20,275.39 297.71,275.06 295.12,274.65 292.42,274.14 289.63,273.54 286.75,272.85" fill="#15191d" stroke="#15191d" stroke-width="1.44" stroke-linejoin="round"/><polygon points="279.08,181.08 276.29,179.22 273.46,177.51 270.58,175.96 267.66,174.57 264.71,173.35 261.74,172.29 258.76,171.41 255.77,170.71 252.36,171.20 248.96,171.86 245.58,172.70 242.23,173.71 238.91,174.88 235.64,176.23 232.42,177.73 229.26,179.40 228.60,181.30 228.02,183.35 227.50,185.54 227.07,187.87 226.70,190.34 226.41,192.93 226.20,195.64 226.06,198.46 228.78,199.42 231.57,200.48 234.42,201.64 237.33,202.90 240.29,204.25 243.29,205.69 246.32,207.22 249.37,208.83 252.71,207.44 256.07,206.13 259.42,204.90 262.76,203.76 266.09,202.71 269.39,201.76 272.66,200.90 275.88,200.15 276.47,197.34 277.01,194.64 277.50,192.06 277.93,189.59 278.30,187.26 278.62,185.06 278.88,183.00" fill="none" stroke="#9aa3ad" stroke-width="1.58" stroke-linejoin="round"/><polygon points="234.53,281.13 233.62,278.12 232.77,275.01 231.98,271.80 231.25,268.52 230.58,265.15 229.98,261.72 229.44,258.23 228.98,254.70 225.73,253.51 222.57,252.28 219.49,251.02 216.51,249.73 213.63,248.41 210.86,247.07 208.20,245.70 205.67,244.32 204.07,246.94 202.60,249.54 201.28,252.11 200.09,254.65 199.05,257.15 198.16,259.60 197.41,262.00 196.82,264.35 198.57,267.50 200.46,270.58 202.50,273.58 204.68,276.49 206.99,279.30 209.43,282.01 211.99,284.61 214.66,287.09 216.83,286.77 219.11,286.32 221.48,285.75 223.94,285.06 226.48,284.25 229.10,283.32 231.78,282.28" fill="#15191d" stroke="#15191d" stroke-width="1.44" stroke-linejoin="round"/><polygon points="234.53,281.13 233.62,278.12 232.77,275.01 231.98,271.80 231.25,268.52 230.58,265.15 229.98,261.72 229.44,258.23 228.98,254.70 225.73,253.51 222.57,252.28 219.49,251.02 216.51,249.73 213.63,248.41 210.86,247.07 208.20,245.70 205.67,244.32 205.02,240.76 204.50,237.19 204.12,233.63 203.87,230.08 203.75,226.55 203.77,223.06 203.92,219.61 204.21,216.21 201.69,222.08 199.60,228.10 197.96,234.20 196.78,240.35 196.07,246.48 195.84,252.56 196.09,258.53 196.82,264.35 198.57,267.50 200.46,270.58 202.50,273.58 204.68,276.49 206.99,279.30 209.43,282.01 211.99,284.61 214.66,287.09 216.83,286.77 219.11,286.32 221.48,285.75 223.94,285.06 226.48,284.25 229.10,283.32 231.78,282.28" fill="none" stroke="#9aa3ad" stroke-width="1.58" stroke-linejoin="round"/><polygon points="250.83,236.95 254.30,238.05 257.78,239.15 261.25,240.24 264.71,241.34 268.15,242.43 271.55,243.51 274.92,244.58 278.24,245.64 280.43,242.78 282.56,239.91 284.62,237.03 286.61,234.16 288.52,231.31 290.34,228.47 292.08,225.67 293.72,222.89 296.77,223.22 299.71,223.58 302.54,223.99 305.25,224.43 307.83,224.91 310.28,225.43 312.59,225.99 314.76,226.58 311.19,222.61 307.17,218.78 302.75,215.10 297.96,211.62 292.84,208.36 287.42,205.35 281.75,202.60 275.88,200.15 272.66,200.90 269.39,201.76 266.09,202.71 262.76,203.76 259.42,204.90 256.07,206.13 252.71,207.44 249.37,208.83 249.50,212.17 249.64,215.57 249.80,219.03 249.98,222.55 250.17,226.11 250.37,229.70 250.59,233.32" fill="none" stroke="#9aa3ad" stroke-width="1.58" stroke-linejoin="round"/><polygon points="228.98,254.70 229.44,258.23 229.98,261.72 230.58,265.15 231.25,268.52 231.98,271.80 232.77,275.01 233.62,278.12 234.53,281.13 237.86,282.63 241.23,284.02 244.64,285.29 248.07,286.45 251.53,287.48 255.00,288.39 258.48,289.17 261.94,289.82 264.80,288.00 267.64,286.06 270.45,284.00 273.22,281.82 275.95,279.54 278.62,277.14 281.24,274.66 283.79,272.07 283.33,268.98 282.81,265.81 282.21,262.57 281.54,259.27 280.81,255.92 280.01,252.52 279.15,249.10 278.24,245.64 274.92,244.58 271.55,243.51 268.15,242.43 264.71,241.34 261.25,240.24 257.78,239.15 254.30,238.05 250.83,236.95 247.97,239.21 245.14,241.47 242.33,243.72 239.56,245.96 236.84,248.19 234.16,250.39 231.54,252.56" fill="none" stroke="#9aa3ad" stroke-width="1.58" stroke-linejoin="round"/><polygon points="250.83,236.95 254.30,238.05 257.78,239.15 261.25,240.24 264.71,241.34 268.15,242.43 271.55,243.51 274.92,244.58 278.24,245.64 280.43,242.78 282.56,239.91 284.62,237.03 286.61,234.16 288.52,231.31 290.34,228.47 292.08,225.67 293.72,222.89 291.77,219.82 289.73,216.80 287.61,213.84 285.40,210.94 283.12,208.11 280.77,205.37 278.35,202.71 275.88,200.15 272.66,200.90 269.39,201.76 266.09,202.71 262.76,203.76 259.42,204.90 256.07,206.13 252.71,207.44 249.37,208.83 249.50,212.17 249.64,215.57 249.80,219.03 249.98,222.55 250.17,226.11 250.37,229.70 250.59,233.32" fill="#15191d" stroke="#15191d" stroke-width="1.44" stroke-linejoin="round"/><circle cx="256.0" cy="239.21" r="71.81" fill="url(#bs)"/><circle cx="256.0" cy="239.21" r="71.81" fill="url(#bh)"/></g><circle cx="256.0" cy="239.21" r="71.81" fill="none" stroke="#0d1114" stroke-opacity=".55" stroke-width="2.15"/><rect x="85.96" y="347.75" width="340.07" height="113.36" rx="23.09" fill="#1a1f24" fill-opacity=".88"/><text x="256.00" y="438.02" text-anchor="middle" font-family="Inter,Arial,Helvetica,sans-serif" font-size="104.96" font-weight="900" font-style="italic" letter-spacing="-4.20" fill="#ffffff">BET<tspan fill="#9fb2c8">62</tspan></text></g></svg>